Coordinates
version=1
nRows=4
nColumns=63
inDegrees=yes

Units are S.I. units (second, meters, Newtons, ...)
If the header above contains a line with 'inDegrees', this indicates whether rotational values are in degrees (yes) or radians (no).

endheader
time	pelvis_tilt	pelvis_list	pelvis_rotation	pelvis_tx	pelvis_ty	pelvis_tz	hip_flexion_r	hip_adduction_r	hip_rotation_r	knee_angle_r	knee_angle_r_beta	ankle_angle_r	subtalar_angle_r	mtp_angle_r	hip_flexion_l	hip_adduction_l	hip_rotation_l	knee_angle_l	knee_angle_l_beta	ankle_angle_l	subtalar_angle_l	mtp_angle_l	L5_S1_Flex_Ext	L5_S1_Lat_Bending	L5_S1_axial_rotation	L4_L5_Flex_Ext	L4_L5_Lat_Bending	L4_L5_axial_rotation	L3_L4_Flex_Ext	L3_L4_Lat_Bending	L3_L4_axial_rotation	L2_L3_Flex_Ext	L2_L3_Lat_Bending	L2_L3_axial_rotation	L1_L2_Flex_Ext	L1_L2_Lat_Bending	L1_L2_axial_rotation	L1_T12_Flex_Ext	L1_T12_Lat_Bending	L1_T12_axial_rotation	Abs_r3	Abs_r2	Abs_r1	Abs_t1	Abs_t2	neck_flexion	neck_bending	neck_rotation	arm_flex_r	arm_add_r	arm_rot_r	elbow_flex_r	pro_sup_r	wrist_flex_r	wrist_dev_r	arm_flex_l	arm_add_l	arm_rot_l	elbow_flex_l	pro_sup_l	wrist_flex_l	wrist_dev_l
      8.85000000	      6.79412252	      9.51654890	     84.75523102	      0.18818695	      0.70527755	      0.96518861	     -0.98733117	      5.13004717	      5.87320798	     14.29983316	      0.24957917	     14.43803596	      0.11588020	      0.00000000	     -6.47241871	     -6.81857530	     -9.49862691	      5.75698603	      0.10047836	     23.55913634	     -3.34571895	      0.00000000	     -0.84929318	      1.33196288	      8.59959930	     -1.57722237	      1.77151063	      9.13707426	     -1.39530377	      3.23853454	      9.13707426	     -0.97065718	      3.23853454	      7.52464939	     -0.78865365	      2.71613870	      6.98717443	     -0.48528612	      2.06321050	      6.44969948	     -6.06641627	     15.06743045	     47.82839143	      0.00000000	      0.00000000	      4.73697563	     -6.23881713	    -41.95283088	    -24.35649608	    -33.17857528	      4.44974758	     97.48861046	     88.37890790	      3.18048583	     -5.77345068	     33.73513034	     36.89987304	    208.16956313	      0.05107787	      0.58002543	    -69.90177987	    -24.58607536
      8.87500000	      6.21050867	      9.52823104	     83.87463156	      0.19154235	      0.70640530	      0.96531528	     -1.31109584	      4.39872405	      5.86910591	     13.75752604	      0.24011413	     14.43473907	      2.35260412	      0.00000000	     -6.59853501	     -6.24115820	    -10.53200013	      5.72238966	      0.09987454	     23.03378373	     -3.46846893	      0.00000000	     -0.84700496	      1.31898989	      8.86350956	     -1.57297291	      1.75425655	      9.41747890	     -1.39154445	      3.20699201	      9.41747890	     -0.96804197	      3.20699201	      7.75557086	     -0.78652880	      2.68968418	      7.20160151	     -0.48397863	      2.04311534	      6.64763217	     -6.05007172	     14.92067742	     49.29618110	      0.00000000	      0.00000000	      2.77017448	     -7.75008755	    -41.99073299	    -26.09333338	    -31.18206889	     -1.47484082	     96.87998620	     87.60996335	      6.33225739	     -2.81606307	     33.37260533	     33.94902314	    209.74191114	      0.05149108	      0.59078991	    -69.90113423	    -24.60334845
      8.90000000	      5.61057317	      9.34115233	     83.07949927	      0.19477270	      0.70672791	      0.96447100	     -1.46556501	      3.67952994	      6.01936419	     13.23535742	      0.23100056	     14.56877401	      4.36329940	      0.00000000	     -6.52275563	     -5.66792761	    -11.27181158	      5.70713052	      0.09960822	     22.66823711	     -3.78837023	      0.00000000	     -0.83709439	      1.28692857	      9.01214713	     -1.55456800	      1.71161500	      9.57540633	     -1.37526238	      3.12903814	      9.57540633	     -0.95671518	      3.12903814	      7.88562874	     -0.77732585	      2.62430475	      7.32236954	     -0.47831574	      1.99345236	      6.75911035	     -5.97928154	     14.55799342	     50.12285870	      0.00000000	      0.00000000	      1.49154765	     -9.28895527	    -41.45402071	    -27.45790205	    -29.25282435	     -5.68244890	     96.34306366	     85.20375191	      6.35393174	      0.34336461	     33.08624908	     31.06127628	    211.68112282	      0.05244526	      0.61781944	    -69.89892113	    -24.60737242
      8.92500000	      4.99081126	      9.03299238	     82.35636818	      0.19771095	      0.70647877	      0.96295974	     -1.46977192	      2.91071098	      5.81358506	     12.79675155	      0.22334545	     14.87269068	      6.76298036	      0.00000000	     -6.33387547	     -5.07738134	    -11.99332016	      5.67138115	      0.09898427	     22.40143174	     -4.05943845	      0.00000000	     -0.83190815	      1.24049482	      9.06620596	     -1.54493663	      1.64985811	      9.63284384	     -1.36674191	      3.01613910	      9.63284384	     -0.95078783	      3.01613910	      7.93293022	     -0.77250991	      2.52961704	      7.36629235	     -0.47535232	      1.92152648	      6.79965447	     -5.94223675	     14.03272549	     50.42351771	      0.00000000	      0.00000000	      1.21664907	    -10.67536146	    -40.03417986	    -28.48385038	    -27.63770444	     -8.62926454	     96.06984402	     81.33997947	      5.70560605	      4.41383698	     32.76351758	     28.29254649	    212.60567863	      0.05385070	      0.66980470	    -69.89511142	    -24.60562876
